solid OpenSCAD_Model
  facet normal -0 0 -1
    outer loop
      vertex -18 0 0
      vertex -17.6067 3.74241 0
      vertex -17.6067 -3.74241 0
    endloop
  endfacet
  facet normal 0 -0 -1
    outer loop
      vertex -17.6067 -3.74241 0
      vertex -17.6067 3.74241 0
      vertex -16.4438 7.32126 0
    endloop
  endfacet
  facet normal 0 0 -1
    outer loop
      vertex -17.6067 -3.74241 0
      vertex -16.4438 7.32126 0
      vertex -14.5623 10.5801 0
    endloop
  endfacet
  facet normal 0 0 -1
    outer loop
      vertex -17.6067 -3.74241 0
      vertex -14.5623 10.5801 0
      vertex -12.0444 13.3766 0
    endloop
  endfacet
  facet normal 0 0 -1
    outer loop
      vertex -17.6067 -3.74241 0
      vertex -12.0444 13.3766 0
      vertex -9 15.5885 0
    endloop
  endfacet
  facet normal 0 0 -1
    outer loop
      vertex -17.6067 -3.74241 0
      vertex -9 15.5885 0
      vertex -5.56231 17.119 0
    endloop
  endfacet
  facet normal 0 0 -1
    outer loop
      vertex -17.6067 -3.74241 0
      vertex -5.56231 17.119 0
      vertex -1.88151 17.9014 0
    endloop
  endfacet
  facet normal 0 0 -1
    outer loop
      vertex -7.15133 7.94236 0
      vertex -1.88151 17.9014 0
      vertex 1.88151 17.9014 0
    endloop
  endfacet
  facet normal 0 0 -1
    outer loop
      vertex -2.90642 10.2486 0
      vertex 1.88151 17.9014 0
      vertex 5.56231 17.119 0
    endloop
  endfacet
  facet normal 0 0 -1
    outer loop
      vertex 1.51334 10.5447 0
      vertex 5.56231 17.119 0
      vertex 9 15.5885 0
    endloop
  endfacet
  facet normal 0 0 -1
    outer loop
      vertex 3.67265 9.99967 0
      vertex 9 15.5885 0
      vertex 12.0444 13.3766 0
    endloop
  endfacet
  facet normal 0 0 -1
    outer loop
      vertex 7.42236 7.64135 0
      vertex 12.0444 13.3766 0
      vertex 14.5623 10.5801 0
    endloop
  endfacet
  facet normal 0 0 -1
    outer loop
      vertex 8.84889 5.93117 0
      vertex 14.5623 10.5801 0
      vertex 16.4438 7.32126 0
    endloop
  endfacet
  facet normal -0 0 -1
    outer loop
      vertex 9.88868 3.96177 0
      vertex 16.4438 7.32126 0
      vertex 17.6067 3.74241 0
    endloop
  endfacet
  facet normal 0 0 -1
    outer loop
      vertex 10.6452 -0.402829 0
      vertex 17.6067 3.74241 0
      vertex 18 0 0
    endloop
  endfacet
  facet normal -0 0 -1
    outer loop
      vertex 10.3288 -2.60728 0
      vertex 18 0 0
      vertex 17.6067 -3.74241 0
    endloop
  endfacet
  facet normal -0 0 -1
    outer loop
      vertex 8.64637 -6.28196 0
      vertex 17.6067 -3.74241 0
      vertex 16.4438 -7.32126 0
    endloop
  endfacet
  facet normal -0 0 -1
    outer loop
      vertex 6.82364 -8.18044 0
      vertex 16.4438 -7.32126 0
      vertex 14.5623 -10.5801 0
    endloop
  endfacet
  facet normal 0 0 -1
    outer loop
      vertex 3.30262 -10.1644 0
      vertex 14.5623 -10.5801 0
      vertex 12.0444 -13.3766 0
    endloop
  endfacet
  facet normal 0 0 -1
    outer loop
      vertex -1.11715 -10.629 0
      vertex 12.0444 -13.3766 0
      vertex 9 -15.5885 0
    endloop
  endfacet
  facet normal 0 0 -1
    outer loop
      vertex -3.30262 -10.1644 0
      vertex 9 -15.5885 0
      vertex 5.56231 -17.119 0
    endloop
  endfacet
  facet normal 0 0 -1
    outer loop
      vertex -17.6067 -3.74241 0
      vertex 5.56231 -17.119 0
      vertex 1.88151 -17.9014 0
    endloop
  endfacet
  facet normal 0 0 -1
    outer loop
      vertex -17.6067 -3.74241 0
      vertex 1.88151 -17.9014 0
      vertex -1.88151 -17.9014 0
    endloop
  endfacet
  facet normal 0 0 -1
    outer loop
      vertex -17.6067 -3.74241 0
      vertex -1.88151 -17.9014 0
      vertex -5.56231 -17.119 0
    endloop
  endfacet
  facet normal 0 0 -1
    outer loop
      vertex -17.6067 -3.74241 0
      vertex -5.56231 -17.119 0
      vertex -9 -15.5885 0
    endloop
  endfacet
  facet normal 0 0 -1
    outer loop
      vertex -17.6067 -3.74241 0
      vertex -9 -15.5885 0
      vertex -12.0444 -13.3766 0
    endloop
  endfacet
  facet normal 0 0 -1
    outer loop
      vertex -17.6067 -3.74241 0
      vertex -12.0444 -13.3766 0
      vertex -14.5623 -10.5801 0
    endloop
  endfacet
  facet normal 0 0 -1
    outer loop
      vertex -17.6067 -3.74241 0
      vertex -14.5623 -10.5801 0
      vertex -16.4438 -7.32126 0
    endloop
  endfacet
  facet normal 0 -0 -1
    outer loop
      vertex -10.6875 0 0
      vertex -17.6067 -3.74241 0
      vertex -10.6452 0.402829 0
    endloop
  endfacet
  facet normal 0 0 -1
    outer loop
      vertex -10.4963 -1.81923 0
      vertex -17.6067 -3.74241 0
      vertex -10.6875 0 0
    endloop
  endfacet
  facet normal 0 0 -1
    outer loop
      vertex -10.454 -2.22206 0
      vertex -17.6067 -3.74241 0
      vertex -10.4963 -1.81923 0
    endloop
  endfacet
  facet normal 0 0 -1
    outer loop
      vertex -9.88868 -3.96177 0
      vertex -17.6067 -3.74241 0
      vertex -10.454 -2.22206 0
    endloop
  endfacet
  facet normal 0 0 -1
    outer loop
      vertex 8.64637 -6.28196 0
      vertex 16.4438 -7.32126 0
      vertex 8.37534 -6.58296 0
    endloop
  endfacet
  facet normal 0 0 -1
    outer loop
      vertex -8.84889 -5.93117 0
      vertex -17.6067 -3.74241 0
      vertex -9.76352 -4.347 0
    endloop
  endfacet
  facet normal 0 0 -1
    outer loop
      vertex -17.6067 -3.74241 0
      vertex -9.88868 -3.96177 0
      vertex -9.76352 -4.347 0
    endloop
  endfacet
  facet normal 0 0 -1
    outer loop
      vertex -7.42236 -7.64135 0
      vertex -17.6067 -3.74241 0
      vertex -8.64637 -6.28196 0
    endloop
  endfacet
  facet normal 0 0 -1
    outer loop
      vertex -17.6067 -3.74241 0
      vertex -8.84889 -5.93117 0
      vertex -8.64637 -6.28196 0
    endloop
  endfacet
  facet normal 0 0 -1
    outer loop
      vertex -5.34375 -9.25565 0
      vertex -17.6067 -3.74241 0
      vertex -5.67144 -9.01757 0
    endloop
  endfacet
  facet normal 0 0 -1
    outer loop
      vertex -17.6067 -3.74241 0
      vertex -7.42236 -7.64135 0
      vertex -7.15133 -7.94236 0
    endloop
  endfacet
  facet normal 0 0 -1
    outer loop
      vertex -17.6067 -3.74241 0
      vertex -7.15133 -7.94236 0
      vertex -5.67144 -9.01757 0
    endloop
  endfacet
  facet normal 0 0 -1
    outer loop
      vertex -1.51334 -10.5447 0
      vertex 9 -15.5885 0
      vertex -3.30262 -10.1644 0
    endloop
  endfacet
  facet normal 0 0 -1
    outer loop
      vertex -17.6067 -3.74241 0
      vertex -5.34375 -9.25565 0
      vertex 5.56231 -17.119 0
    endloop
  endfacet
  facet normal 0 0 -1
    outer loop
      vertex -5.34375 -9.25565 0
      vertex -3.67265 -9.99967 0
      vertex 5.56231 -17.119 0
    endloop
  endfacet
  facet normal 0 0 -1
    outer loop
      vertex -3.67265 -9.99967 0
      vertex -3.30262 -10.1644 0
      vertex 5.56231 -17.119 0
    endloop
  endfacet
  facet normal 0 0 -1
    outer loop
      vertex -1.11715 -10.629 0
      vertex 9 -15.5885 0
      vertex -1.51334 -10.5447 0
    endloop
  endfacet
  facet normal 0 0 -1
    outer loop
      vertex 1.11715 -10.629 0
      vertex 12.0444 -13.3766 0
      vertex -1.11715 -10.629 0
    endloop
  endfacet
  facet normal 0 0 -1
    outer loop
      vertex 2.90642 -10.2486 0
      vertex 12.0444 -13.3766 0
      vertex 1.11715 -10.629 0
    endloop
  endfacet
  facet normal 0 0 -1
    outer loop
      vertex 4.97372 -9.42039 0
      vertex 14.5623 -10.5801 0
      vertex 3.30262 -10.1644 0
    endloop
  endfacet
  facet normal 0 0 -1
    outer loop
      vertex 6.82364 -8.18044 0
      vertex 14.5623 -10.5801 0
      vertex 5.34375 -9.25565 0
    endloop
  endfacet
  facet normal 0 0 -1
    outer loop
      vertex 5.34375 -9.25565 0
      vertex 14.5623 -10.5801 0
      vertex 4.97372 -9.42039 0
    endloop
  endfacet
  facet normal -0 0 -1
    outer loop
      vertex 7.15133 -7.94236 0
      vertex 16.4438 -7.32126 0
      vertex 6.82364 -8.18044 0
    endloop
  endfacet
  facet normal 0 0 -1
    outer loop
      vertex 3.30262 -10.1644 0
      vertex 12.0444 -13.3766 0
      vertex 2.90642 -10.2486 0
    endloop
  endfacet
  facet normal 0 0 -1
    outer loop
      vertex 8.37534 -6.58296 0
      vertex 16.4438 -7.32126 0
      vertex 7.15133 -7.94236 0
    endloop
  endfacet
  facet normal -0 0 -1
    outer loop
      vertex 9.56099 -4.69778 0
      vertex 17.6067 -3.74241 0
      vertex 8.64637 -6.28196 0
    endloop
  endfacet
  facet normal 0 0 -1
    outer loop
      vertex 10.3288 -2.60728 0
      vertex 17.6067 -3.74241 0
      vertex 9.76352 -4.347 0
    endloop
  endfacet
  facet normal -0 0 -1
    outer loop
      vertex 9.76352 -4.347 0
      vertex 17.6067 -3.74241 0
      vertex 9.56099 -4.69778 0
    endloop
  endfacet
  facet normal -0 0 -1
    outer loop
      vertex 10.454 -2.22206 0
      vertex 18 0 0
      vertex 10.3288 -2.60728 0
    endloop
  endfacet
  facet normal -0 0 -1
    outer loop
      vertex 10.6875 0 0
      vertex 17.6067 3.74241 0
      vertex 10.6452 -0.402829 0
    endloop
  endfacet
  facet normal -0 0 -1
    outer loop
      vertex 10.454 2.22206 0
      vertex 17.6067 3.74241 0
      vertex 10.4963 1.81923 0
    endloop
  endfacet
  facet normal -0 0 -1
    outer loop
      vertex 10.4963 1.81923 0
      vertex 17.6067 3.74241 0
      vertex 10.6875 0 0
    endloop
  endfacet
  facet normal -0 0 -1
    outer loop
      vertex 9.76352 4.347 0
      vertex 16.4438 7.32126 0
      vertex 9.88868 3.96177 0
    endloop
  endfacet
  facet normal -0 0 -1
    outer loop
      vertex 8.84889 5.93117 0
      vertex 16.4438 7.32126 0
      vertex 9.76352 4.347 0
    endloop
  endfacet
  facet normal -0 0 -1
    outer loop
      vertex 8.64637 6.28196 0
      vertex 14.5623 10.5801 0
      vertex 8.84889 5.93117 0
    endloop
  endfacet
  facet normal 0 0 -1
    outer loop
      vertex 9.88868 3.96177 0
      vertex 17.6067 3.74241 0
      vertex 10.454 2.22206 0
    endloop
  endfacet
  facet normal -0 0 -1
    outer loop
      vertex 10.6452 -0.402829 0
      vertex 18 0 0
      vertex 10.454 -2.22206 0
    endloop
  endfacet
  facet normal -0 0 -1
    outer loop
      vertex 7.15133 7.94236 0
      vertex 12.0444 13.3766 0
      vertex 7.42236 7.64135 0
    endloop
  endfacet
  facet normal -0 0 -1
    outer loop
      vertex 3.67265 9.99967 0
      vertex 12.0444 13.3766 0
      vertex 5.34375 9.25565 0
    endloop
  endfacet
  facet normal -0 0 -1
    outer loop
      vertex 5.67144 9.01757 0
      vertex 12.0444 13.3766 0
      vertex 7.15133 7.94236 0
    endloop
  endfacet
  facet normal -0 0 -1
    outer loop
      vertex 5.34375 9.25565 0
      vertex 12.0444 13.3766 0
      vertex 5.67144 9.01757 0
    endloop
  endfacet
  facet normal -0 0 -1
    outer loop
      vertex 3.30262 10.1644 0
      vertex 9 15.5885 0
      vertex 3.67265 9.99967 0
    endloop
  endfacet
  facet normal -0 0 -1
    outer loop
      vertex 1.51334 10.5447 0
      vertex 9 15.5885 0
      vertex 3.30262 10.1644 0
    endloop
  endfacet
  facet normal -0 0 -1
    outer loop
      vertex 1.11715 10.629 0
      vertex 5.56231 17.119 0
      vertex 1.51334 10.5447 0
    endloop
  endfacet
  facet normal -0 0 -1
    outer loop
      vertex -1.11715 10.629 0
      vertex 5.56231 17.119 0
      vertex 1.11715 10.629 0
    endloop
  endfacet
  facet normal 0 0 -1
    outer loop
      vertex -3.30262 10.1644 0
      vertex 1.88151 17.9014 0
      vertex -2.90642 10.2486 0
    endloop
  endfacet
  facet normal 0 0 -1
    outer loop
      vertex -7.15133 7.94236 0
      vertex 1.88151 17.9014 0
      vertex -6.82364 8.18044 0
    endloop
  endfacet
  facet normal 0 0 -1
    outer loop
      vertex -4.97372 9.42039 0
      vertex 1.88151 17.9014 0
      vertex -3.30262 10.1644 0
    endloop
  endfacet
  facet normal 0 0 -1
    outer loop
      vertex -5.34375 9.25565 0
      vertex 1.88151 17.9014 0
      vertex -4.97372 9.42039 0
    endloop
  endfacet
  facet normal 0 0 -1
    outer loop
      vertex -6.82364 8.18044 0
      vertex 1.88151 17.9014 0
      vertex -5.34375 9.25565 0
    endloop
  endfacet
  facet normal 0 0 -1
    outer loop
      vertex -8.37534 6.58296 0
      vertex -1.88151 17.9014 0
      vertex -7.15133 7.94236 0
    endloop
  endfacet
  facet normal 0 -0 -1
    outer loop
      vertex -9.56099 4.69778 0
      vertex -17.6067 -3.74241 0
      vertex -8.64637 6.28196 0
    endloop
  endfacet
  facet normal 0 0 -1
    outer loop
      vertex -8.64637 6.28196 0
      vertex -1.88151 17.9014 0
      vertex -8.37534 6.58296 0
    endloop
  endfacet
  facet normal 0 0 -1
    outer loop
      vertex -17.6067 -3.74241 0
      vertex -1.88151 17.9014 0
      vertex -8.64637 6.28196 0
    endloop
  endfacet
  facet normal 0 -0 -1
    outer loop
      vertex -9.76352 4.347 0
      vertex -17.6067 -3.74241 0
      vertex -9.56099 4.69778 0
    endloop
  endfacet
  facet normal 0 -0 -1
    outer loop
      vertex -10.3288 2.60728 0
      vertex -17.6067 -3.74241 0
      vertex -9.76352 4.347 0
    endloop
  endfacet
  facet normal -0 0 -1
    outer loop
      vertex 7.42236 7.64135 0
      vertex 14.5623 10.5801 0
      vertex 8.64637 6.28196 0
    endloop
  endfacet
  facet normal 0 -0 -1
    outer loop
      vertex -10.6452 0.402829 0
      vertex -17.6067 -3.74241 0
      vertex -10.454 2.22206 0
    endloop
  endfacet
  facet normal 0 0 -1
    outer loop
      vertex -2.90642 10.2486 0
      vertex 5.56231 17.119 0
      vertex -1.11715 10.629 0
    endloop
  endfacet
  facet normal 0 -0 -1
    outer loop
      vertex -10.454 2.22206 0
      vertex -17.6067 -3.74241 0
      vertex -10.3288 2.60728 0
    endloop
  endfacet
  facet normal -0.994522 0.104528 0
    outer loop
      vertex -18 0 0
      vertex -18 0 6
      vertex -17.6067 3.74241 0
    endloop
  endfacet
  facet normal -0.994522 0.104528 0
    outer loop
      vertex -17.6067 3.74241 0
      vertex -18 0 6
      vertex -17.6067 3.74241 6
    endloop
  endfacet
  facet normal -0.994522 -0.104528 -0
    outer loop
      vertex -18 0 0
      vertex -17.6067 -3.74241 0
      vertex -18 0 6
    endloop
  endfacet
  facet normal -0.994522 -0.104528 0
    outer loop
      vertex -18 0 6
      vertex -17.6067 -3.74241 0
      vertex -17.6067 -3.74241 6
    endloop
  endfacet
  facet normal -0.951057 -0.309017 -0
    outer loop
      vertex -17.6067 -3.74241 0
      vertex -16.4438 -7.32126 0
      vertex -17.6067 -3.74241 6
    endloop
  endfacet
  facet normal -0.951057 -0.309017 0
    outer loop
      vertex -17.6067 -3.74241 6
      vertex -16.4438 -7.32126 0
      vertex -16.4438 -7.32126 6
    endloop
  endfacet
  facet normal -0.866025 -0.5 -0
    outer loop
      vertex -16.4438 -7.32126 0
      vertex -14.5623 -10.5801 0
      vertex -16.4438 -7.32126 6
    endloop
  endfacet
  facet normal -0.866025 -0.5 0
    outer loop
      vertex -16.4438 -7.32126 6
      vertex -14.5623 -10.5801 0
      vertex -14.5623 -10.5801 6
    endloop
  endfacet
  facet normal -0.743145 -0.669131 -0
    outer loop
      vertex -14.5623 -10.5801 0
      vertex -12.0444 -13.3766 0
      vertex -14.5623 -10.5801 6
    endloop
  endfacet
  facet normal -0.743145 -0.669131 0
    outer loop
      vertex -14.5623 -10.5801 6
      vertex -12.0444 -13.3766 0
      vertex -12.0444 -13.3766 6
    endloop
  endfacet
  facet normal -0.587785 -0.809017 0
    outer loop
      vertex -12.0444 -13.3766 6
      vertex -12.0444 -13.3766 0
      vertex -9 -15.5885 0
    endloop
  endfacet
  facet normal -0.587785 -0.809017 0
    outer loop
      vertex -9 -15.5885 6
      vertex -12.0444 -13.3766 6
      vertex -9 -15.5885 0
    endloop
  endfacet
  facet normal -0.406737 -0.913545 0
    outer loop
      vertex -9 -15.5885 6
      vertex -9 -15.5885 0
      vertex -5.56231 -17.119 0
    endloop
  endfacet
  facet normal -0.406737 -0.913545 0
    outer loop
      vertex -5.56231 -17.119 6
      vertex -9 -15.5885 6
      vertex -5.56231 -17.119 0
    endloop
  endfacet
  facet normal -0.207912 -0.978148 0
    outer loop
      vertex -5.56231 -17.119 6
      vertex -5.56231 -17.119 0
      vertex -1.88151 -17.9014 0
    endloop
  endfacet
  facet normal -0.207912 -0.978148 0
    outer loop
      vertex -1.88151 -17.9014 6
      vertex -5.56231 -17.119 6
      vertex -1.88151 -17.9014 0
    endloop
  endfacet
  facet normal 0 -1 0
    outer loop
      vertex -1.88151 -17.9014 6
      vertex -1.88151 -17.9014 0
      vertex 1.88151 -17.9014 0
    endloop
  endfacet
  facet normal 0 -1 0
    outer loop
      vertex 1.88151 -17.9014 6
      vertex -1.88151 -17.9014 6
      vertex 1.88151 -17.9014 0
    endloop
  endfacet
  facet normal 0.207912 -0.978148 0
    outer loop
      vertex 1.88151 -17.9014 6
      vertex 1.88151 -17.9014 0
      vertex 5.56231 -17.119 0
    endloop
  endfacet
  facet normal 0.207912 -0.978148 0
    outer loop
      vertex 5.56231 -17.119 6
      vertex 1.88151 -17.9014 6
      vertex 5.56231 -17.119 0
    endloop
  endfacet
  facet normal 0.406737 -0.913545 0
    outer loop
      vertex 5.56231 -17.119 6
      vertex 5.56231 -17.119 0
      vertex 9 -15.5885 0
    endloop
  endfacet
  facet normal 0.406737 -0.913545 0
    outer loop
      vertex 9 -15.5885 6
      vertex 5.56231 -17.119 6
      vertex 9 -15.5885 0
    endloop
  endfacet
  facet normal 0.587785 -0.809017 0
    outer loop
      vertex 9 -15.5885 6
      vertex 9 -15.5885 0
      vertex 12.0444 -13.3766 0
    endloop
  endfacet
  facet normal 0.587785 -0.809017 0
    outer loop
      vertex 12.0444 -13.3766 6
      vertex 9 -15.5885 6
      vertex 12.0444 -13.3766 0
    endloop
  endfacet
  facet normal 0.743145 -0.669131 0
    outer loop
      vertex 12.0444 -13.3766 6
      vertex 12.0444 -13.3766 0
      vertex 14.5623 -10.5801 0
    endloop
  endfacet
  facet normal 0.743145 -0.669131 0
    outer loop
      vertex 14.5623 -10.5801 6
      vertex 12.0444 -13.3766 6
      vertex 14.5623 -10.5801 0
    endloop
  endfacet
  facet normal 0.866025 -0.5 0
    outer loop
      vertex 14.5623 -10.5801 6
      vertex 14.5623 -10.5801 0
      vertex 16.4438 -7.32126 0
    endloop
  endfacet
  facet normal 0.866025 -0.5 0
    outer loop
      vertex 16.4438 -7.32126 6
      vertex 14.5623 -10.5801 6
      vertex 16.4438 -7.32126 0
    endloop
  endfacet
  facet normal 0.951057 -0.309017 0
    outer loop
      vertex 16.4438 -7.32126 6
      vertex 16.4438 -7.32126 0
      vertex 17.6067 -3.74241 0
    endloop
  endfacet
  facet normal 0.951057 -0.309017 0
    outer loop
      vertex 17.6067 -3.74241 6
      vertex 16.4438 -7.32126 6
      vertex 17.6067 -3.74241 0
    endloop
  endfacet
  facet normal 0.994522 -0.104528 0
    outer loop
      vertex 17.6067 -3.74241 6
      vertex 17.6067 -3.74241 0
      vertex 18 0 0
    endloop
  endfacet
  facet normal 0.994522 -0.104528 0
    outer loop
      vertex 18 0 6
      vertex 17.6067 -3.74241 6
      vertex 18 0 0
    endloop
  endfacet
  facet normal 0.994522 0.104528 0
    outer loop
      vertex 18 0 0
      vertex 17.6067 3.74241 0
      vertex 17.6067 3.74241 6
    endloop
  endfacet
  facet normal 0.994522 0.104528 -0
    outer loop
      vertex 18 0 6
      vertex 18 0 0
      vertex 17.6067 3.74241 6
    endloop
  endfacet
  facet normal 0.951057 0.309017 0
    outer loop
      vertex 17.6067 3.74241 0
      vertex 16.4438 7.32126 0
      vertex 16.4438 7.32126 6
    endloop
  endfacet
  facet normal 0.951057 0.309017 -0
    outer loop
      vertex 17.6067 3.74241 6
      vertex 17.6067 3.74241 0
      vertex 16.4438 7.32126 6
    endloop
  endfacet
  facet normal 0.866025 0.5 0
    outer loop
      vertex 16.4438 7.32126 0
      vertex 14.5623 10.5801 0
      vertex 14.5623 10.5801 6
    endloop
  endfacet
  facet normal 0.866025 0.5 -0
    outer loop
      vertex 16.4438 7.32126 6
      vertex 16.4438 7.32126 0
      vertex 14.5623 10.5801 6
    endloop
  endfacet
  facet normal 0.743145 0.669131 0
    outer loop
      vertex 14.5623 10.5801 0
      vertex 12.0444 13.3766 0
      vertex 12.0444 13.3766 6
    endloop
  endfacet
  facet normal 0.743145 0.669131 -0
    outer loop
      vertex 14.5623 10.5801 6
      vertex 14.5623 10.5801 0
      vertex 12.0444 13.3766 6
    endloop
  endfacet
  facet normal 0.587785 0.809017 0
    outer loop
      vertex 9 15.5885 0
      vertex 9 15.5885 6
      vertex 12.0444 13.3766 0
    endloop
  endfacet
  facet normal 0.587785 0.809017 0
    outer loop
      vertex 12.0444 13.3766 0
      vertex 9 15.5885 6
      vertex 12.0444 13.3766 6
    endloop
  endfacet
  facet normal 0.406737 0.913545 0
    outer loop
      vertex 5.56231 17.119 0
      vertex 5.56231 17.119 6
      vertex 9 15.5885 0
    endloop
  endfacet
  facet normal 0.406737 0.913545 0
    outer loop
      vertex 9 15.5885 0
      vertex 5.56231 17.119 6
      vertex 9 15.5885 6
    endloop
  endfacet
  facet normal 0.207912 0.978148 0
    outer loop
      vertex 1.88151 17.9014 0
      vertex 1.88151 17.9014 6
      vertex 5.56231 17.119 0
    endloop
  endfacet
  facet normal 0.207912 0.978148 0
    outer loop
      vertex 5.56231 17.119 0
      vertex 1.88151 17.9014 6
      vertex 5.56231 17.119 6
    endloop
  endfacet
  facet normal 0 1 0
    outer loop
      vertex -1.88151 17.9014 0
      vertex -1.88151 17.9014 6
      vertex 1.88151 17.9014 0
    endloop
  endfacet
  facet normal 0 1 0
    outer loop
      vertex 1.88151 17.9014 0
      vertex -1.88151 17.9014 6
      vertex 1.88151 17.9014 6
    endloop
  endfacet
  facet normal -0.207912 0.978148 0
    outer loop
      vertex -5.56231 17.119 0
      vertex -5.56231 17.119 6
      vertex -1.88151 17.9014 0
    endloop
  endfacet
  facet normal -0.207912 0.978148 0
    outer loop
      vertex -1.88151 17.9014 0
      vertex -5.56231 17.119 6
      vertex -1.88151 17.9014 6
    endloop
  endfacet
  facet normal -0.406737 0.913545 0
    outer loop
      vertex -9 15.5885 0
      vertex -9 15.5885 6
      vertex -5.56231 17.119 0
    endloop
  endfacet
  facet normal -0.406737 0.913545 0
    outer loop
      vertex -5.56231 17.119 0
      vertex -9 15.5885 6
      vertex -5.56231 17.119 6
    endloop
  endfacet
  facet normal -0.587785 0.809017 0
    outer loop
      vertex -12.0444 13.3766 0
      vertex -12.0444 13.3766 6
      vertex -9 15.5885 0
    endloop
  endfacet
  facet normal -0.587785 0.809017 0
    outer loop
      vertex -9 15.5885 0
      vertex -12.0444 13.3766 6
      vertex -9 15.5885 6
    endloop
  endfacet
  facet normal -0.743145 0.669131 0
    outer loop
      vertex -14.5623 10.5801 0
      vertex -14.5623 10.5801 6
      vertex -12.0444 13.3766 0
    endloop
  endfacet
  facet normal -0.743145 0.669131 0
    outer loop
      vertex -12.0444 13.3766 0
      vertex -14.5623 10.5801 6
      vertex -12.0444 13.3766 6
    endloop
  endfacet
  facet normal -0.866025 0.5 0
    outer loop
      vertex -16.4438 7.32126 0
      vertex -16.4438 7.32126 6
      vertex -14.5623 10.5801 0
    endloop
  endfacet
  facet normal -0.866025 0.5 0
    outer loop
      vertex -14.5623 10.5801 0
      vertex -16.4438 7.32126 6
      vertex -14.5623 10.5801 6
    endloop
  endfacet
  facet normal -0.951057 0.309017 0
    outer loop
      vertex -17.6067 3.74241 0
      vertex -17.6067 3.74241 6
      vertex -16.4438 7.32126 0
    endloop
  endfacet
  facet normal -0.951057 0.309017 0
    outer loop
      vertex -16.4438 7.32126 0
      vertex -17.6067 3.74241 6
      vertex -16.4438 7.32126 6
    endloop
  endfacet
  facet normal 0.820968 -0.0862872 0.564416
    outer loop
      vertex -10.6875 0 0
      vertex -10.6452 0.402829 0
      vertex -14.5161 2.8198 6
    endloop
  endfacet
  facet normal 0.820968 -0.0862872 0.564416
    outer loop
      vertex -14.8125 0 6
      vertex -10.6875 0 0
      vertex -14.5161 2.8198 6
    endloop
  endfacet
  facet normal 0.820968 -0.0862873 0.564416
    outer loop
      vertex -10.6452 0.402829 0
      vertex -10.454 2.22206 0
      vertex -14.4888 3.07969 6
    endloop
  endfacet
  facet normal 0.820968 -0.0862873 0.564416
    outer loop
      vertex -14.5161 2.8198 6
      vertex -10.6452 0.402829 0
      vertex -14.4888 3.07969 6
    endloop
  endfacet
  facet normal 0.785088 -0.255091 0.564416
    outer loop
      vertex -10.454 2.22206 0
      vertex -10.3288 2.60728 0
      vertex -13.6126 5.77626 6
    endloop
  endfacet
  facet normal 0.785088 -0.255091 0.564416
    outer loop
      vertex -14.4888 3.07969 6
      vertex -10.454 2.22206 0
      vertex -13.6126 5.77626 6
    endloop
  endfacet
  facet normal 0.785088 -0.255091 0.564416
    outer loop
      vertex -10.3288 2.60728 0
      vertex -9.76352 4.347 0
      vertex -13.5319 6.02479 6
    endloop
  endfacet
  facet normal 0.785088 -0.255091 0.564416
    outer loop
      vertex -13.6126 5.77626 6
      vertex -10.3288 2.60728 0
      vertex -13.5319 6.02479 6
    endloop
  endfacet
  facet normal 0.714896 -0.412746 0.564416
    outer loop
      vertex -9.76352 4.347 0
      vertex -9.56099 4.69778 0
      vertex -12.1142 8.48026 6
    endloop
  endfacet
  facet normal 0.714896 -0.412746 0.564416
    outer loop
      vertex -13.5319 6.02479 6
      vertex -9.76352 4.347 0
      vertex -12.1142 8.48026 6
    endloop
  endfacet
  facet normal 0.714896 -0.412745 0.564416
    outer loop
      vertex -9.56099 4.69778 0
      vertex -8.64637 6.28196 0
      vertex -11.9836 8.70657 6
    endloop
  endfacet
  facet normal 0.714896 -0.412745 0.564416
    outer loop
      vertex -12.1142 8.48026 6
      vertex -9.56099 4.69778 0
      vertex -11.9836 8.70657 6
    endloop
  endfacet
  facet normal 0.613459 -0.552361 0.564416
    outer loop
      vertex -8.64637 6.28196 0
      vertex -8.37534 6.58296 0
      vertex -10.0864 10.8136 6
    endloop
  endfacet
  facet normal 0.613459 -0.552361 0.564416
    outer loop
      vertex -11.9836 8.70657 6
      vertex -8.64637 6.28196 0
      vertex -10.0864 10.8136 6
    endloop
  endfacet
  facet normal 0.613459 -0.552361 0.564416
    outer loop
      vertex -8.37534 6.58296 0
      vertex -7.15133 7.94236 0
      vertex -9.9115 11.0078 6
    endloop
  endfacet
  facet normal 0.613459 -0.552361 0.564416
    outer loop
      vertex -10.0864 10.8136 6
      vertex -8.37534 6.58296 0
      vertex -9.9115 11.0078 6
    endloop
  endfacet
  facet normal 0.485211 -0.667836 0.564416
    outer loop
      vertex -7.15133 7.94236 0
      vertex -6.82364 8.18044 0
      vertex -7.61766 12.6744 6
    endloop
  endfacet
  facet normal 0.485211 -0.667836 0.564416
    outer loop
      vertex -9.9115 11.0078 6
      vertex -7.15133 7.94236 0
      vertex -7.61766 12.6744 6
    endloop
  endfacet
  facet normal 0.485211 -0.667836 0.564416
    outer loop
      vertex -6.82364 8.18044 0
      vertex -5.34375 9.25565 0
      vertex -7.40625 12.828 6
    endloop
  endfacet
  facet normal 0.485211 -0.667836 0.564416
    outer loop
      vertex -7.61766 12.6744 6
      vertex -6.82364 8.18044 0
      vertex -7.40625 12.828 6
    endloop
  endfacet
  facet normal 0.335757 -0.754123 0.564416
    outer loop
      vertex -5.34375 9.25565 0
      vertex -4.97372 9.42039 0
      vertex -4.81604 13.9812 6
    endloop
  endfacet
  facet normal 0.335757 -0.754123 0.564416
    outer loop
      vertex -7.40625 12.828 6
      vertex -5.34375 9.25565 0
      vertex -4.81604 13.9812 6
    endloop
  endfacet
  facet normal 0.335757 -0.754123 0.564416
    outer loop
      vertex -3.30262 10.1644 0
      vertex -4.57731 14.0875 6
      vertex -4.81604 13.9812 6
    endloop
  endfacet
  facet normal 0.335757 -0.754123 0.564416
    outer loop
      vertex -4.97372 9.42039 0
      vertex -3.30262 10.1644 0
      vertex -4.81604 13.9812 6
    endloop
  endfacet
  facet normal 0.171629 -0.807452 0.564416
    outer loop
      vertex -3.30262 10.1644 0
      vertex -2.90642 10.2486 0
      vertex -1.80394 14.677 6
    endloop
  endfacet
  facet normal 0.171629 -0.807452 0.564416
    outer loop
      vertex -4.57731 14.0875 6
      vertex -3.30262 10.1644 0
      vertex -1.80394 14.677 6
    endloop
  endfacet
  facet normal 0.171629 -0.807452 0.564416
    outer loop
      vertex -1.11715 10.629 0
      vertex -1.54833 14.7314 6
      vertex -1.80394 14.677 6
    endloop
  endfacet
  facet normal 0.171629 -0.807452 0.564416
    outer loop
      vertex -2.90642 10.2486 0
      vertex -1.11715 10.629 0
      vertex -1.80394 14.677 6
    endloop
  endfacet
  facet normal 0 -0.825491 0.564416
    outer loop
      vertex -1.11715 10.629 0
      vertex 1.11715 10.629 0
      vertex 1.54833 14.7314 6
    endloop
  endfacet
  facet normal 0 -0.825491 0.564416
    outer loop
      vertex -1.54833 14.7314 6
      vertex -1.11715 10.629 0
      vertex 1.54833 14.7314 6
    endloop
  endfacet
  facet normal -0.171629 -0.807452 0.564416
    outer loop
      vertex 1.51334 10.5447 0
      vertex 4.3217 14.1419 6
      vertex 1.54833 14.7314 6
    endloop
  endfacet
  facet normal -0.171629 -0.807452 0.564416
    outer loop
      vertex 1.11715 10.629 0
      vertex 1.51334 10.5447 0
      vertex 1.54833 14.7314 6
    endloop
  endfacet
  facet normal -0.171629 -0.807452 0.564416
    outer loop
      vertex 3.30262 10.1644 0
      vertex 4.57731 14.0875 6
      vertex 4.3217 14.1419 6
    endloop
  endfacet
  facet normal -0.171629 -0.807452 0.564416
    outer loop
      vertex 1.51334 10.5447 0
      vertex 3.30262 10.1644 0
      vertex 4.3217 14.1419 6
    endloop
  endfacet
  facet normal -0.335757 -0.754123 0.564416
    outer loop
      vertex 3.67265 9.99967 0
      vertex 7.16752 12.9343 6
      vertex 4.57731 14.0875 6
    endloop
  endfacet
  facet normal -0.335757 -0.754123 0.564416
    outer loop
      vertex 3.30262 10.1644 0
      vertex 3.67265 9.99967 0
      vertex 4.57731 14.0875 6
    endloop
  endfacet
  facet normal -0.335757 -0.754123 0.564416
    outer loop
      vertex 5.34375 9.25565 0
      vertex 7.40625 12.828 6
      vertex 7.16752 12.9343 6
    endloop
  endfacet
  facet normal -0.335757 -0.754123 0.564416
    outer loop
      vertex 3.67265 9.99967 0
      vertex 5.34375 9.25565 0
      vertex 7.16752 12.9343 6
    endloop
  endfacet
  facet normal -0.485211 -0.667836 0.564416
    outer loop
      vertex 5.67144 9.01757 0
      vertex 9.70008 11.1614 6
      vertex 7.40625 12.828 6
    endloop
  endfacet
  facet normal -0.485211 -0.667836 0.564416
    outer loop
      vertex 5.34375 9.25565 0
      vertex 5.67144 9.01757 0
      vertex 7.40625 12.828 6
    endloop
  endfacet
  facet normal -0.485211 -0.667836 0.564416
    outer loop
      vertex 7.15133 7.94236 0
      vertex 9.9115 11.0078 6
      vertex 9.70008 11.1614 6
    endloop
  endfacet
  facet normal -0.485211 -0.667836 0.564416
    outer loop
      vertex 5.67144 9.01757 0
      vertex 7.15133 7.94236 0
      vertex 9.70008 11.1614 6
    endloop
  endfacet
  facet normal -0.613459 -0.552361 0.564416
    outer loop
      vertex 11.8087 8.90077 6
      vertex 9.9115 11.0078 6
      vertex 7.42236 7.64135 0
    endloop
  endfacet
  facet normal -0.613459 -0.552361 0.564416
    outer loop
      vertex 7.42236 7.64135 0
      vertex 9.9115 11.0078 6
      vertex 7.15133 7.94236 0
    endloop
  endfacet
  facet normal -0.613459 -0.552361 0.564416
    outer loop
      vertex 11.9836 8.70657 6
      vertex 11.8087 8.90077 6
      vertex 8.64637 6.28196 0
    endloop
  endfacet
  facet normal -0.613459 -0.552361 0.564416
    outer loop
      vertex 8.64637 6.28196 0
      vertex 11.8087 8.90077 6
      vertex 7.42236 7.64135 0
    endloop
  endfacet
  facet normal -0.714896 -0.412746 0.564416
    outer loop
      vertex 13.4012 6.2511 6
      vertex 11.9836 8.70657 6
      vertex 8.84889 5.93117 0
    endloop
  endfacet
  facet normal -0.714896 -0.412746 0.564416
    outer loop
      vertex 8.84889 5.93117 0
      vertex 11.9836 8.70657 6
      vertex 8.64637 6.28196 0
    endloop
  endfacet
  facet normal -0.714896 -0.412745 0.564416
    outer loop
      vertex 13.5319 6.02479 6
      vertex 13.4012 6.2511 6
      vertex 9.76352 4.347 0
    endloop
  endfacet
  facet normal -0.714896 -0.412745 0.564416
    outer loop
      vertex 9.76352 4.347 0
      vertex 13.4012 6.2511 6
      vertex 8.84889 5.93117 0
    endloop
  endfacet
  facet normal -0.785088 -0.255091 0.564416
    outer loop
      vertex 14.4081 3.32822 6
      vertex 13.5319 6.02479 6
      vertex 9.88868 3.96177 0
    endloop
  endfacet
  facet normal -0.785088 -0.255091 0.564416
    outer loop
      vertex 9.88868 3.96177 0
      vertex 13.5319 6.02479 6
      vertex 9.76352 4.347 0
    endloop
  endfacet
  facet normal -0.785088 -0.255091 0.564416
    outer loop
      vertex 14.4888 3.07969 6
      vertex 14.4081 3.32822 6
      vertex 10.454 2.22206 0
    endloop
  endfacet
  facet normal -0.785088 -0.255091 0.564416
    outer loop
      vertex 10.454 2.22206 0
      vertex 14.4081 3.32822 6
      vertex 9.88868 3.96177 0
    endloop
  endfacet
  facet normal -0.820968 -0.0862872 0.564416
    outer loop
      vertex 14.7852 0.25989 6
      vertex 14.4888 3.07969 6
      vertex 10.4963 1.81923 0
    endloop
  endfacet
  facet normal -0.820968 -0.0862872 0.564416
    outer loop
      vertex 10.4963 1.81923 0
      vertex 14.4888 3.07969 6
      vertex 10.454 2.22206 0
    endloop
  endfacet
  facet normal -0.820968 -0.0862873 0.564416
    outer loop
      vertex 14.8125 0 6
      vertex 14.7852 0.25989 6
      vertex 10.6875 0 0
    endloop
  endfacet
  facet normal -0.820968 -0.0862873 0.564416
    outer loop
      vertex 10.6875 0 0
      vertex 14.7852 0.25989 6
      vertex 10.4963 1.81923 0
    endloop
  endfacet
  facet normal -0.820968 0.0862872 0.564416
    outer loop
      vertex 14.8125 0 6
      vertex 10.6875 0 0
      vertex 14.5161 -2.8198 6
    endloop
  endfacet
  facet normal -0.820968 0.0862872 0.564416
    outer loop
      vertex 14.5161 -2.8198 6
      vertex 10.6875 0 0
      vertex 10.6452 -0.402829 0
    endloop
  endfacet
  facet normal -0.820968 0.0862873 0.564416
    outer loop
      vertex 14.5161 -2.8198 6
      vertex 10.6452 -0.402829 0
      vertex 14.4888 -3.07969 6
    endloop
  endfacet
  facet normal -0.820968 0.0862873 0.564416
    outer loop
      vertex 14.4888 -3.07969 6
      vertex 10.6452 -0.402829 0
      vertex 10.454 -2.22206 0
    endloop
  endfacet
  facet normal -0.785088 0.255091 0.564416
    outer loop
      vertex 14.4888 -3.07969 6
      vertex 10.454 -2.22206 0
      vertex 13.6126 -5.77626 6
    endloop
  endfacet
  facet normal -0.785088 0.255091 0.564416
    outer loop
      vertex 13.6126 -5.77626 6
      vertex 10.454 -2.22206 0
      vertex 10.3288 -2.60728 0
    endloop
  endfacet
  facet normal -0.785088 0.255091 0.564416
    outer loop
      vertex 13.6126 -5.77626 6
      vertex 10.3288 -2.60728 0
      vertex 13.5319 -6.02479 6
    endloop
  endfacet
  facet normal -0.785088 0.255091 0.564416
    outer loop
      vertex 13.5319 -6.02479 6
      vertex 10.3288 -2.60728 0
      vertex 9.76352 -4.347 0
    endloop
  endfacet
  facet normal -0.714896 0.412746 0.564416
    outer loop
      vertex 13.5319 -6.02479 6
      vertex 9.76352 -4.347 0
      vertex 12.1142 -8.48026 6
    endloop
  endfacet
  facet normal -0.714896 0.412746 0.564416
    outer loop
      vertex 12.1142 -8.48026 6
      vertex 9.76352 -4.347 0
      vertex 9.56099 -4.69778 0
    endloop
  endfacet
  facet normal -0.714896 0.412745 0.564416
    outer loop
      vertex 12.1142 -8.48026 6
      vertex 9.56099 -4.69778 0
      vertex 11.9836 -8.70657 6
    endloop
  endfacet
  facet normal -0.714896 0.412745 0.564416
    outer loop
      vertex 11.9836 -8.70657 6
      vertex 9.56099 -4.69778 0
      vertex 8.64637 -6.28196 0
    endloop
  endfacet
  facet normal -0.613459 0.552361 0.564416
    outer loop
      vertex 11.9836 -8.70657 6
      vertex 8.64637 -6.28196 0
      vertex 10.0864 -10.8136 6
    endloop
  endfacet
  facet normal -0.613459 0.552361 0.564416
    outer loop
      vertex 10.0864 -10.8136 6
      vertex 8.64637 -6.28196 0
      vertex 8.37534 -6.58296 0
    endloop
  endfacet
  facet normal -0.613459 0.552361 0.564416
    outer loop
      vertex 10.0864 -10.8136 6
      vertex 8.37534 -6.58296 0
      vertex 9.9115 -11.0078 6
    endloop
  endfacet
  facet normal -0.613459 0.552361 0.564416
    outer loop
      vertex 9.9115 -11.0078 6
      vertex 8.37534 -6.58296 0
      vertex 7.15133 -7.94236 0
    endloop
  endfacet
  facet normal -0.485211 0.667836 0.564416
    outer loop
      vertex 9.9115 -11.0078 6
      vertex 7.15133 -7.94236 0
      vertex 7.61766 -12.6744 6
    endloop
  endfacet
  facet normal -0.485211 0.667836 0.564416
    outer loop
      vertex 7.61766 -12.6744 6
      vertex 7.15133 -7.94236 0
      vertex 6.82364 -8.18044 0
    endloop
  endfacet
  facet normal -0.485211 0.667836 0.564416
    outer loop
      vertex 7.61766 -12.6744 6
      vertex 6.82364 -8.18044 0
      vertex 7.40625 -12.828 6
    endloop
  endfacet
  facet normal -0.485211 0.667836 0.564416
    outer loop
      vertex 7.40625 -12.828 6
      vertex 6.82364 -8.18044 0
      vertex 5.34375 -9.25565 0
    endloop
  endfacet
  facet normal -0.335757 0.754123 0.564416
    outer loop
      vertex 5.34375 -9.25565 0
      vertex 4.97372 -9.42039 0
      vertex 7.40625 -12.828 6
    endloop
  endfacet
  facet normal -0.335757 0.754123 0.564416
    outer loop
      vertex 7.40625 -12.828 6
      vertex 4.97372 -9.42039 0
      vertex 4.81604 -13.9812 6
    endloop
  endfacet
  facet normal -0.335757 0.754123 0.564416
    outer loop
      vertex 4.81604 -13.9812 6
      vertex 4.97372 -9.42039 0
      vertex 4.57731 -14.0875 6
    endloop
  endfacet
  facet normal -0.335757 0.754123 0.564416
    outer loop
      vertex 4.57731 -14.0875 6
      vertex 4.97372 -9.42039 0
      vertex 3.30262 -10.1644 0
    endloop
  endfacet
  facet normal -0.171629 0.807452 0.564416
    outer loop
      vertex 3.30262 -10.1644 0
      vertex 2.90642 -10.2486 0
      vertex 4.57731 -14.0875 6
    endloop
  endfacet
  facet normal -0.171629 0.807452 0.564416
    outer loop
      vertex 4.57731 -14.0875 6
      vertex 2.90642 -10.2486 0
      vertex 1.80394 -14.677 6
    endloop
  endfacet
  facet normal -0.171629 0.807452 0.564416
    outer loop
      vertex 1.80394 -14.677 6
      vertex 2.90642 -10.2486 0
      vertex 1.54833 -14.7314 6
    endloop
  endfacet
  facet normal -0.171629 0.807452 0.564416
    outer loop
      vertex 1.54833 -14.7314 6
      vertex 2.90642 -10.2486 0
      vertex 1.11715 -10.629 0
    endloop
  endfacet
  facet normal -0 0.825491 0.564416
    outer loop
      vertex 1.11715 -10.629 0
      vertex -1.11715 -10.629 0
      vertex 1.54833 -14.7314 6
    endloop
  endfacet
  facet normal -0 0.825491 0.564416
    outer loop
      vertex 1.54833 -14.7314 6
      vertex -1.11715 -10.629 0
      vertex -1.54833 -14.7314 6
    endloop
  endfacet
  facet normal 0.171629 0.807452 0.564416
    outer loop
      vertex -1.11715 -10.629 0
      vertex -1.51334 -10.5447 0
      vertex -1.54833 -14.7314 6
    endloop
  endfacet
  facet normal 0.171629 0.807452 0.564416
    outer loop
      vertex -1.54833 -14.7314 6
      vertex -1.51334 -10.5447 0
      vertex -4.3217 -14.1419 6
    endloop
  endfacet
  facet normal 0.171629 0.807452 0.564416
    outer loop
      vertex -1.51334 -10.5447 0
      vertex -3.30262 -10.1644 0
      vertex -4.3217 -14.1419 6
    endloop
  endfacet
  facet normal 0.171629 0.807452 0.564416
    outer loop
      vertex -4.3217 -14.1419 6
      vertex -3.30262 -10.1644 0
      vertex -4.57731 -14.0875 6
    endloop
  endfacet
  facet normal 0.335757 0.754123 0.564416
    outer loop
      vertex -3.30262 -10.1644 0
      vertex -3.67265 -9.99967 0
      vertex -4.57731 -14.0875 6
    endloop
  endfacet
  facet normal 0.335757 0.754123 0.564416
    outer loop
      vertex -4.57731 -14.0875 6
      vertex -3.67265 -9.99967 0
      vertex -7.16752 -12.9343 6
    endloop
  endfacet
  facet normal 0.335757 0.754123 0.564416
    outer loop
      vertex -3.67265 -9.99967 0
      vertex -5.34375 -9.25565 0
      vertex -7.16752 -12.9343 6
    endloop
  endfacet
  facet normal 0.335757 0.754123 0.564416
    outer loop
      vertex -7.16752 -12.9343 6
      vertex -5.34375 -9.25565 0
      vertex -7.40625 -12.828 6
    endloop
  endfacet
  facet normal 0.485211 0.667836 0.564416
    outer loop
      vertex -5.34375 -9.25565 0
      vertex -5.67144 -9.01757 0
      vertex -7.40625 -12.828 6
    endloop
  endfacet
  facet normal 0.485211 0.667836 0.564416
    outer loop
      vertex -7.40625 -12.828 6
      vertex -5.67144 -9.01757 0
      vertex -9.70008 -11.1614 6
    endloop
  endfacet
  facet normal 0.485211 0.667836 0.564416
    outer loop
      vertex -5.67144 -9.01757 0
      vertex -7.15133 -7.94236 0
      vertex -9.70008 -11.1614 6
    endloop
  endfacet
  facet normal 0.485211 0.667836 0.564416
    outer loop
      vertex -9.70008 -11.1614 6
      vertex -7.15133 -7.94236 0
      vertex -9.9115 -11.0078 6
    endloop
  endfacet
  facet normal 0.613459 0.552361 0.564416
    outer loop
      vertex -9.9115 -11.0078 6
      vertex -7.15133 -7.94236 0
      vertex -7.42236 -7.64135 0
    endloop
  endfacet
  facet normal 0.613459 0.552361 0.564416
    outer loop
      vertex -11.8087 -8.90077 6
      vertex -9.9115 -11.0078 6
      vertex -7.42236 -7.64135 0
    endloop
  endfacet
  facet normal 0.613459 0.552361 0.564416
    outer loop
      vertex -11.8087 -8.90077 6
      vertex -7.42236 -7.64135 0
      vertex -8.64637 -6.28196 0
    endloop
  endfacet
  facet normal 0.613459 0.552361 0.564416
    outer loop
      vertex -11.9836 -8.70657 6
      vertex -11.8087 -8.90077 6
      vertex -8.64637 -6.28196 0
    endloop
  endfacet
  facet normal 0.714896 0.412746 0.564416
    outer loop
      vertex -11.9836 -8.70657 6
      vertex -8.64637 -6.28196 0
      vertex -8.84889 -5.93117 0
    endloop
  endfacet
  facet normal 0.714896 0.412746 0.564416
    outer loop
      vertex -13.4012 -6.2511 6
      vertex -11.9836 -8.70657 6
      vertex -8.84889 -5.93117 0
    endloop
  endfacet
  facet normal 0.714896 0.412745 0.564416
    outer loop
      vertex -13.4012 -6.2511 6
      vertex -8.84889 -5.93117 0
      vertex -9.76352 -4.347 0
    endloop
  endfacet
  facet normal 0.714896 0.412745 0.564416
    outer loop
      vertex -13.5319 -6.02479 6
      vertex -13.4012 -6.2511 6
      vertex -9.76352 -4.347 0
    endloop
  endfacet
  facet normal 0.785088 0.255091 0.564416
    outer loop
      vertex -13.5319 -6.02479 6
      vertex -9.76352 -4.347 0
      vertex -9.88868 -3.96177 0
    endloop
  endfacet
  facet normal 0.785088 0.255091 0.564416
    outer loop
      vertex -14.4081 -3.32822 6
      vertex -13.5319 -6.02479 6
      vertex -9.88868 -3.96177 0
    endloop
  endfacet
  facet normal 0.785088 0.255091 0.564416
    outer loop
      vertex -14.4081 -3.32822 6
      vertex -9.88868 -3.96177 0
      vertex -10.454 -2.22206 0
    endloop
  endfacet
  facet normal 0.785088 0.255091 0.564416
    outer loop
      vertex -14.4888 -3.07969 6
      vertex -14.4081 -3.32822 6
      vertex -10.454 -2.22206 0
    endloop
  endfacet
  facet normal 0.820968 0.0862872 0.564416
    outer loop
      vertex -14.4888 -3.07969 6
      vertex -10.454 -2.22206 0
      vertex -10.4963 -1.81923 0
    endloop
  endfacet
  facet normal 0.820968 0.0862872 0.564416
    outer loop
      vertex -14.7852 -0.25989 6
      vertex -14.4888 -3.07969 6
      vertex -10.4963 -1.81923 0
    endloop
  endfacet
  facet normal 0.820968 0.0862873 0.564416
    outer loop
      vertex -14.7852 -0.25989 6
      vertex -10.4963 -1.81923 0
      vertex -10.6875 0 0
    endloop
  endfacet
  facet normal 0.820968 0.0862873 0.564416
    outer loop
      vertex -14.8125 0 6
      vertex -14.7852 -0.25989 6
      vertex -10.6875 0 0
    endloop
  endfacet
  facet normal 0 0 1
    outer loop
      vertex -17.6067 3.74241 6
      vertex -18 0 6
      vertex -17.6067 -3.74241 6
    endloop
  endfacet
  facet normal 0 0 1
    outer loop
      vertex -14.5623 -10.5801 6
      vertex -17.6067 3.74241 6
      vertex -16.4438 -7.32126 6
    endloop
  endfacet
  facet normal 0 0 1
    outer loop
      vertex -16.4438 -7.32126 6
      vertex -17.6067 3.74241 6
      vertex -17.6067 -3.74241 6
    endloop
  endfacet
  facet normal 0 0 1
    outer loop
      vertex -12.0444 -13.3766 6
      vertex -17.6067 3.74241 6
      vertex -14.5623 -10.5801 6
    endloop
  endfacet
  facet normal -0 -0 1
    outer loop
      vertex -13.5319 -6.02479 6
      vertex -17.6067 3.74241 6
      vertex -12.0444 -13.3766 6
    endloop
  endfacet
  facet normal -0 -0 1
    outer loop
      vertex -7.40625 -12.828 6
      vertex -9.70008 -11.1614 6
      vertex -5.56231 -17.119 6
    endloop
  endfacet
  facet normal 0 -0 1
    outer loop
      vertex 14.5161 -2.8198 6
      vertex 14.4888 -3.07969 6
      vertex 17.6067 -3.74241 6
    endloop
  endfacet
  facet normal 0 0 1
    outer loop
      vertex 14.4888 3.07969 6
      vertex 14.7852 0.25989 6
      vertex 18 0 6
    endloop
  endfacet
  facet normal 0 0 1
    outer loop
      vertex -1.54833 14.7314 6
      vertex 1.54833 14.7314 6
      vertex 5.56231 17.119 6
    endloop
  endfacet
  facet normal 0 0 1
    outer loop
      vertex -7.40625 12.828 6
      vertex -4.81604 13.9812 6
      vertex -1.88151 17.9014 6
    endloop
  endfacet
  facet normal 0 -0 1
    outer loop
      vertex -9 15.5885 6
      vertex -17.6067 3.74241 6
      vertex -5.56231 17.119 6
    endloop
  endfacet
  facet normal 0 -0 1
    outer loop
      vertex -12.0444 13.3766 6
      vertex -17.6067 3.74241 6
      vertex -9 15.5885 6
    endloop
  endfacet
  facet normal 0 -0 1
    outer loop
      vertex -14.5623 10.5801 6
      vertex -17.6067 3.74241 6
      vertex -12.0444 13.3766 6
    endloop
  endfacet
  facet normal 0 -0 1
    outer loop
      vertex -16.4438 7.32126 6
      vertex -17.6067 3.74241 6
      vertex -14.5623 10.5801 6
    endloop
  endfacet
  facet normal -0 -0 1
    outer loop
      vertex -11.9836 -8.70657 6
      vertex -13.4012 -6.2511 6
      vertex -9 -15.5885 6
    endloop
  endfacet
  facet normal 0 0 1
    outer loop
      vertex -13.5319 -6.02479 6
      vertex -14.4081 -3.32822 6
      vertex -17.6067 3.74241 6
    endloop
  endfacet
  facet normal 0 0 1
    outer loop
      vertex -14.4888 3.07969 6
      vertex -13.6126 5.77626 6
      vertex -17.6067 3.74241 6
    endloop
  endfacet
  facet normal 0 -0 1
    outer loop
      vertex 11.9836 -8.70657 6
      vertex 10.0864 -10.8136 6
      vertex 14.5623 -10.5801 6
    endloop
  endfacet
  facet normal 0 0 1
    outer loop
      vertex 9.9115 11.0078 6
      vertex 11.8087 8.90077 6
      vertex 14.5623 10.5801 6
    endloop
  endfacet
  facet normal 0 -0 1
    outer loop
      vertex 14.4888 -3.07969 6
      vertex 13.6126 -5.77626 6
      vertex 17.6067 -3.74241 6
    endloop
  endfacet
  facet normal 0 0 1
    outer loop
      vertex 7.40625 12.828 6
      vertex 9.70008 11.1614 6
      vertex 12.0444 13.3766 6
    endloop
  endfacet
  facet normal 0 0 1
    outer loop
      vertex -13.5319 6.02479 6
      vertex -17.6067 3.74241 6
      vertex -13.6126 5.77626 6
    endloop
  endfacet
  facet normal 0 0 1
    outer loop
      vertex 4.57731 14.0875 6
      vertex 7.16752 12.9343 6
      vertex 9 15.5885 6
    endloop
  endfacet
  facet normal 0 0 1
    outer loop
      vertex -11.9836 8.70657 6
      vertex -17.6067 3.74241 6
      vertex -12.1142 8.48026 6
    endloop
  endfacet
  facet normal 0 0 1
    outer loop
      vertex -5.56231 17.119 6
      vertex -17.6067 3.74241 6
      vertex -10.0864 10.8136 6
    endloop
  endfacet
  facet normal 0 -0 1
    outer loop
      vertex -5.56231 17.119 6
      vertex -9.9115 11.0078 6
      vertex -1.88151 17.9014 6
    endloop
  endfacet
  facet normal 0 0 1
    outer loop
      vertex -5.56231 17.119 6
      vertex -10.0864 10.8136 6
      vertex -9.9115 11.0078 6
    endloop
  endfacet
  facet normal 0 0 1
    outer loop
      vertex -4.57731 14.0875 6
      vertex -1.80394 14.677 6
      vertex 1.88151 17.9014 6
    endloop
  endfacet
  facet normal 0 0 1
    outer loop
      vertex -1.88151 17.9014 6
      vertex -7.61766 12.6744 6
      vertex -7.40625 12.828 6
    endloop
  endfacet
  facet normal 0 -0 1
    outer loop
      vertex -1.88151 17.9014 6
      vertex -4.81604 13.9812 6
      vertex 1.88151 17.9014 6
    endloop
  endfacet
  facet normal 0 0 1
    outer loop
      vertex -4.81604 13.9812 6
      vertex -4.57731 14.0875 6
      vertex 1.88151 17.9014 6
    endloop
  endfacet
  facet normal 0 -0 1
    outer loop
      vertex 1.88151 17.9014 6
      vertex -1.80394 14.677 6
      vertex 5.56231 17.119 6
    endloop
  endfacet
  facet normal -0 0 1
    outer loop
      vertex -11.9836 8.70657 6
      vertex -10.0864 10.8136 6
      vertex -17.6067 3.74241 6
    endloop
  endfacet
  facet normal 0 0 1
    outer loop
      vertex -1.80394 14.677 6
      vertex -1.54833 14.7314 6
      vertex 5.56231 17.119 6
    endloop
  endfacet
  facet normal 0 0 1
    outer loop
      vertex -9.9115 11.0078 6
      vertex -7.61766 12.6744 6
      vertex -1.88151 17.9014 6
    endloop
  endfacet
  facet normal 0 -0 1
    outer loop
      vertex 5.56231 17.119 6
      vertex 1.54833 14.7314 6
      vertex 9 15.5885 6
    endloop
  endfacet
  facet normal 0 0 1
    outer loop
      vertex 1.54833 14.7314 6
      vertex 4.3217 14.1419 6
      vertex 9 15.5885 6
    endloop
  endfacet
  facet normal 0 0 1
    outer loop
      vertex 4.3217 14.1419 6
      vertex 4.57731 14.0875 6
      vertex 9 15.5885 6
    endloop
  endfacet
  facet normal 0 -0 1
    outer loop
      vertex 9 15.5885 6
      vertex 7.16752 12.9343 6
      vertex 12.0444 13.3766 6
    endloop
  endfacet
  facet normal 0 0 1
    outer loop
      vertex 7.16752 12.9343 6
      vertex 7.40625 12.828 6
      vertex 12.0444 13.3766 6
    endloop
  endfacet
  facet normal 0 -0 1
    outer loop
      vertex 12.0444 13.3766 6
      vertex 9.70008 11.1614 6
      vertex 14.5623 10.5801 6
    endloop
  endfacet
  facet normal -0 0 1
    outer loop
      vertex -13.5319 6.02479 6
      vertex -12.1142 8.48026 6
      vertex -17.6067 3.74241 6
    endloop
  endfacet
  facet normal 0 0 1
    outer loop
      vertex 9.70008 11.1614 6
      vertex 9.9115 11.0078 6
      vertex 14.5623 10.5801 6
    endloop
  endfacet
  facet normal 0 -0 1
    outer loop
      vertex 14.5623 10.5801 6
      vertex 11.8087 8.90077 6
      vertex 16.4438 7.32126 6
    endloop
  endfacet
  facet normal 0 0 1
    outer loop
      vertex 11.8087 8.90077 6
      vertex 11.9836 8.70657 6
      vertex 16.4438 7.32126 6
    endloop
  endfacet
  facet normal 0 -0 1
    outer loop
      vertex 16.4438 7.32126 6
      vertex 13.4012 6.2511 6
      vertex 17.6067 3.74241 6
    endloop
  endfacet
  facet normal 0 0 1
    outer loop
      vertex 13.4012 6.2511 6
      vertex 13.5319 6.02479 6
      vertex 17.6067 3.74241 6
    endloop
  endfacet
  facet normal 0 -0 1
    outer loop
      vertex 17.6067 3.74241 6
      vertex 14.4081 3.32822 6
      vertex 18 0 6
    endloop
  endfacet
  facet normal 0 0 1
    outer loop
      vertex 14.4081 3.32822 6
      vertex 14.4888 3.07969 6
      vertex 18 0 6
    endloop
  endfacet
  facet normal -0 0 1
    outer loop
      vertex 18 0 6
      vertex 14.7852 0.25989 6
      vertex 17.6067 -3.74241 6
    endloop
  endfacet
  facet normal 0 0 1
    outer loop
      vertex 14.7852 0.25989 6
      vertex 14.8125 0 6
      vertex 17.6067 -3.74241 6
    endloop
  endfacet
  facet normal 0 -0 1
    outer loop
      vertex 14.8125 0 6
      vertex 14.5161 -2.8198 6
      vertex 17.6067 -3.74241 6
    endloop
  endfacet
  facet normal 0 -0 1
    outer loop
      vertex 13.5319 -6.02479 6
      vertex 12.1142 -8.48026 6
      vertex 16.4438 -7.32126 6
    endloop
  endfacet
  facet normal 0 0 1
    outer loop
      vertex 17.6067 -3.74241 6
      vertex 13.6126 -5.77626 6
      vertex 16.4438 -7.32126 6
    endloop
  endfacet
  facet normal 0 -0 1
    outer loop
      vertex 13.6126 -5.77626 6
      vertex 13.5319 -6.02479 6
      vertex 16.4438 -7.32126 6
    endloop
  endfacet
  facet normal 0 0 1
    outer loop
      vertex 16.4438 -7.32126 6
      vertex 12.1142 -8.48026 6
      vertex 14.5623 -10.5801 6
    endloop
  endfacet
  facet normal 0 -0 1
    outer loop
      vertex 12.1142 -8.48026 6
      vertex 11.9836 -8.70657 6
      vertex 14.5623 -10.5801 6
    endloop
  endfacet
  facet normal 0 0 1
    outer loop
      vertex -14.5161 2.8198 6
      vertex -14.4888 3.07969 6
      vertex -17.6067 3.74241 6
    endloop
  endfacet
  facet normal 0 0 1
    outer loop
      vertex 14.5623 -10.5801 6
      vertex 10.0864 -10.8136 6
      vertex 12.0444 -13.3766 6
    endloop
  endfacet
  facet normal 0 -0 1
    outer loop
      vertex 10.0864 -10.8136 6
      vertex 9.9115 -11.0078 6
      vertex 12.0444 -13.3766 6
    endloop
  endfacet
  facet normal 0 0 1
    outer loop
      vertex 11.9836 8.70657 6
      vertex 13.4012 6.2511 6
      vertex 16.4438 7.32126 6
    endloop
  endfacet
  facet normal -0 0 1
    outer loop
      vertex 12.0444 -13.3766 6
      vertex 7.61766 -12.6744 6
      vertex 9 -15.5885 6
    endloop
  endfacet
  facet normal 0 -0 1
    outer loop
      vertex 7.61766 -12.6744 6
      vertex 7.40625 -12.828 6
      vertex 9 -15.5885 6
    endloop
  endfacet
  facet normal 0 0 1
    outer loop
      vertex 13.5319 6.02479 6
      vertex 14.4081 3.32822 6
      vertex 17.6067 3.74241 6
    endloop
  endfacet
  facet normal -0 0 1
    outer loop
      vertex 9 -15.5885 6
      vertex 4.81604 -13.9812 6
      vertex 5.56231 -17.119 6
    endloop
  endfacet
  facet normal 0 -0 1
    outer loop
      vertex 4.81604 -13.9812 6
      vertex 4.57731 -14.0875 6
      vertex 5.56231 -17.119 6
    endloop
  endfacet
  facet normal -0 0 1
    outer loop
      vertex 5.56231 -17.119 6
      vertex 1.80394 -14.677 6
      vertex 1.88151 -17.9014 6
    endloop
  endfacet
  facet normal 0 -0 1
    outer loop
      vertex 1.80394 -14.677 6
      vertex 1.54833 -14.7314 6
      vertex 1.88151 -17.9014 6
    endloop
  endfacet
  facet normal 0 -0 1
    outer loop
      vertex 1.54833 -14.7314 6
      vertex -1.54833 -14.7314 6
      vertex 1.88151 -17.9014 6
    endloop
  endfacet
  facet normal -0 0 1
    outer loop
      vertex 1.88151 -17.9014 6
      vertex -1.54833 -14.7314 6
      vertex -1.88151 -17.9014 6
    endloop
  endfacet
  facet normal -0 0 1
    outer loop
      vertex -1.54833 -14.7314 6
      vertex -4.3217 -14.1419 6
      vertex -1.88151 -17.9014 6
    endloop
  endfacet
  facet normal -0 -0 1
    outer loop
      vertex -4.3217 -14.1419 6
      vertex -4.57731 -14.0875 6
      vertex -1.88151 -17.9014 6
    endloop
  endfacet
  facet normal 0 0 1
    outer loop
      vertex -1.88151 -17.9014 6
      vertex -7.16752 -12.9343 6
      vertex -5.56231 -17.119 6
    endloop
  endfacet
  facet normal -0 -0 1
    outer loop
      vertex -7.16752 -12.9343 6
      vertex -7.40625 -12.828 6
      vertex -5.56231 -17.119 6
    endloop
  endfacet
  facet normal 0 0 1
    outer loop
      vertex -5.56231 -17.119 6
      vertex -9.70008 -11.1614 6
      vertex -9 -15.5885 6
    endloop
  endfacet
  facet normal 0 0 1
    outer loop
      vertex -14.7852 -0.25989 6
      vertex -14.8125 0 6
      vertex -17.6067 3.74241 6
    endloop
  endfacet
  facet normal -0 -0 1
    outer loop
      vertex -9.70008 -11.1614 6
      vertex -9.9115 -11.0078 6
      vertex -9 -15.5885 6
    endloop
  endfacet
  facet normal 0 -0 1
    outer loop
      vertex 9.9115 -11.0078 6
      vertex 7.61766 -12.6744 6
      vertex 12.0444 -13.3766 6
    endloop
  endfacet
  facet normal -0 -0 1
    outer loop
      vertex -9.9115 -11.0078 6
      vertex -11.8087 -8.90077 6
      vertex -9 -15.5885 6
    endloop
  endfacet
  facet normal -0 -0 1
    outer loop
      vertex -11.8087 -8.90077 6
      vertex -11.9836 -8.70657 6
      vertex -9 -15.5885 6
    endloop
  endfacet
  facet normal 0 0 1
    outer loop
      vertex -9 -15.5885 6
      vertex -13.4012 -6.2511 6
      vertex -12.0444 -13.3766 6
    endloop
  endfacet
  facet normal -0 -0 1
    outer loop
      vertex -13.4012 -6.2511 6
      vertex -13.5319 -6.02479 6
      vertex -12.0444 -13.3766 6
    endloop
  endfacet
  facet normal -0 -0 1
    outer loop
      vertex -14.4888 -3.07969 6
      vertex -17.6067 3.74241 6
      vertex -14.4081 -3.32822 6
    endloop
  endfacet
  facet normal 0 0 1
    outer loop
      vertex -14.4888 -3.07969 6
      vertex -14.7852 -0.25989 6
      vertex -17.6067 3.74241 6
    endloop
  endfacet
  facet normal 0 -0 1
    outer loop
      vertex 7.40625 -12.828 6
      vertex 4.81604 -13.9812 6
      vertex 9 -15.5885 6
    endloop
  endfacet
  facet normal 0 -0 1
    outer loop
      vertex 4.57731 -14.0875 6
      vertex 1.80394 -14.677 6
      vertex 5.56231 -17.119 6
    endloop
  endfacet
  facet normal -0 -0 1
    outer loop
      vertex -4.57731 -14.0875 6
      vertex -7.16752 -12.9343 6
      vertex -1.88151 -17.9014 6
    endloop
  endfacet
  facet normal 0 0 1
    outer loop
      vertex -14.8125 0 6
      vertex -14.5161 2.8198 6
      vertex -17.6067 3.74241 6
    endloop
  endfacet
endsolid OpenSCAD_Model
